<svg width="258" height="44" viewBox="0 0 258 44" fill="none" xmlns="http://www.w3.org/2000/svg">
<g clip-path="url(#clip0_729_1566)">
<path d="M70.067 25.9697C63.3388 25.9697 58.6075 21.3308 58.6075 15.0092C58.6075 8.6876 63.3953 4.02051 70.067 4.02051C72.7052 4.02051 75.1146 4.86188 76.9139 5.96301L75.6654 9.0377C73.982 8.08057 71.8946 7.41425 70.0077 7.41425C65.3386 7.41425 62.4942 10.5172 62.4942 15.012C62.4942 19.5069 65.4233 22.5788 70.0953 22.5788C71.9821 22.5788 74.1853 21.9124 75.897 20.8988L76.9987 23.9707C75.2304 25.1029 72.7052 25.9725 70.067 25.9725" fill="#00303C"/>
<path d="M100.872 25.6224L98.8132 20.7521H90.4015L88.3424 25.6224H84.5997L94.404 4.07983H94.9266L104.703 25.6224H100.872ZM94.6074 10.7741L91.5907 17.8778H97.6241L94.6074 10.7741Z" fill="#00303C"/>
<path d="M119.498 18.7785C118.803 18.7785 118.077 18.7193 117.379 18.691V25.6197H113.753V4.57116C115.64 4.33964 117.408 4.22388 119.148 4.22388C124.978 4.22388 127.966 7.41433 127.966 11.3869C127.966 15.7067 124.921 18.7814 119.495 18.7814M119.758 7.55832C118.944 7.55832 118.134 7.61761 117.379 7.73337V15.5034C118.105 15.5627 118.772 15.6192 119.41 15.6192C122.69 15.6192 124.195 13.9082 124.195 11.5026C124.195 9.41613 122.718 7.55832 119.758 7.55832Z" fill="#00303C"/>
<path d="M143.024 25.9698C140.618 25.9698 138.208 25.1002 136.352 23.8805L137.598 20.6336C139.282 21.8505 141.313 22.6043 143.14 22.6043C145.374 22.6043 146.36 21.2999 146.36 19.8204C146.36 18.341 145.722 17.4121 142.358 15.9919C138.643 14.4277 137.31 12.5135 137.31 9.9611C137.31 6.88923 139.864 4.01782 144.301 4.01782C146.36 4.01782 148.391 4.7152 149.637 5.55376L148.476 8.74421C147.343 7.96212 145.662 7.23651 144.211 7.23651C141.976 7.23651 140.931 8.4534 140.931 9.87357C140.931 11.2937 141.976 12.1351 144.615 13.2955C148.82 15.1223 150.041 16.8333 150.041 19.6172C150.041 23.0391 147.4 25.967 143.021 25.967" fill="#00303C"/>
<path d="M169.132 7.67413V25.6225H165.505V7.67413H158.746V4.36792H175.861V7.67413H169.132Z" fill="#00303C"/>
<path d="M194.399 25.9697C188.249 25.9697 183.753 21.3026 183.753 15.0092C183.753 8.71584 188.453 4.02051 194.602 4.02051C200.751 4.02051 205.248 8.6876 205.248 15.0092C205.248 21.3308 200.548 25.9697 194.399 25.9697ZM194.514 7.26743C190.453 7.26743 187.639 10.5736 187.639 15.0092C187.639 19.4448 190.453 22.751 194.514 22.751C198.576 22.751 201.361 19.4166 201.361 15.0092C201.361 10.6019 198.548 7.26743 194.514 7.26743Z" fill="#00303C"/>
<path d="M232.924 26.0261L219.608 11.9938V25.6224H215.982V4.07694L216.563 3.96118L229.704 17.7931V4.36775H233.33V25.9414L232.924 26.0261Z" fill="#00303C"/>
<path d="M244.79 25.6197V4.36792H257.755V7.67413H248.414V13.2391H256.857V16.4295H248.414V22.3163H257.755V25.6197H244.79Z" fill="#00303C"/>
<path d="M65.1522 39.8947L65.0392 34.55L62.3558 39.1211H62.24L59.5368 34.5387L59.4436 39.8947H58.6075L58.8956 32.2094L59.051 32.1868L62.3332 37.8816L65.5335 32.1868L65.6973 32.2094L65.9883 39.8947H65.1522Z" fill="#BFBFBF"/>
<path d="M77.0269 39.8949L76.1287 37.7999H72.7448L71.8465 39.8949H70.9907L74.3859 32.1982H74.5186L77.9138 39.8949H77.0269ZM74.4367 33.8584L73.0442 37.1081H75.8293L74.4367 33.8584Z" fill="#BFBFBF"/>
<path d="M88.7576 40.0387L83.8455 34.1575V39.8947H83.0208V32.2291L83.1846 32.1868L88.0373 37.9748V32.3308H88.8621V40.0076L88.7576 40.0387Z" fill="#BFBFBF"/>
<path d="M100.005 39.8949L99.107 37.7999H95.7203L94.822 39.8949H93.9662L97.3614 32.1982H97.497L100.892 39.8949H100.005ZM97.415 33.8584L96.0225 37.1081H98.8076L97.415 33.8584Z" fill="#BFBFBF"/>
<path d="M112.241 36.148V39.1295C111.479 39.697 110.6 40.0161 109.476 40.0161C107.38 40.0161 105.431 38.4802 105.431 36.117C105.431 33.7538 107.434 32.2065 109.383 32.2065C110.631 32.2065 111.417 32.5679 112.21 33.1242L111.778 33.7735C111.086 33.2681 110.219 32.9491 109.394 32.9491C107.454 32.9491 106.33 34.4455 106.33 36.117C106.33 37.9014 107.722 39.2848 109.487 39.2848C110.23 39.2848 110.818 39.1295 111.417 38.7681V36.9216H109.414V36.148H112.241Z" fill="#BFBFBF"/>
<path d="M117.916 39.8947V32.3308H122.342V33.0734H118.741V35.685H121.981V36.4276H118.741V39.1522H122.342V39.8947H117.916Z" fill="#BFBFBF"/>
<path d="M134.508 39.8947L134.395 34.55L131.712 39.1211H131.599L128.893 34.5387L128.802 39.8947H127.966L128.254 32.2094L128.41 32.1868L131.692 37.8816L134.889 32.1868L135.056 32.2094L135.344 39.8947H134.508Z" fill="#BFBFBF"/>
<path d="M141.12 39.8947V32.3308H145.549V33.0734H141.945V35.685H145.188V36.4276H141.945V39.1522H145.549V39.8947H141.12Z" fill="#BFBFBF"/>
<path d="M157.012 40.0387L152.1 34.1575V39.8947H151.272V32.2291L151.439 32.1868L156.289 37.9748V32.3308H157.113V40.0076L157.012 40.0387Z" fill="#BFBFBF"/>
<path d="M165.782 33.0734V39.8947H164.955V33.0734H162.427V32.3308H168.299V33.0734H165.782Z" fill="#BFBFBF"/>
<path d="M181.846 37.2632C181.589 37.2632 181.247 37.2435 180.99 37.2209V39.8918H180.165V32.4013C180.722 32.3279 181.278 32.2771 181.9 32.2771C183.851 32.2771 184.809 33.3923 184.809 34.6798C184.809 36.196 183.705 37.2604 181.846 37.2604M182.021 33.0225C181.671 33.0225 181.258 33.0422 180.987 33.1044V36.4783C181.247 36.5094 181.606 36.5404 181.897 36.5404C183.312 36.5404 183.919 35.7245 183.919 34.7448C183.919 33.8582 183.27 33.0225 182.021 33.0225Z" fill="#BFBFBF"/>
<path d="M194.774 39.8949L193.876 37.7999H190.489L189.591 39.8949H188.735L192.13 32.1982H192.263L195.658 39.8949H194.771H194.774ZM192.184 33.8584L190.792 37.1081H193.577L192.184 33.8584Z" fill="#BFBFBF"/>
<path d="M204.98 39.8948L202.966 36.9132C202.802 36.9245 202.635 36.933 202.46 36.933C202.211 36.933 201.85 36.9217 201.604 36.9132V39.8948H200.779V32.4043C201.336 32.3308 201.895 32.28 202.522 32.28C204.474 32.28 205.432 33.2513 205.432 34.5501C205.432 35.6032 204.844 36.3966 203.779 36.7382L205.977 39.8948H204.977H204.98ZM202.646 33.0226C202.296 33.0226 201.872 33.0423 201.604 33.1045V36.1792C201.853 36.2102 202.234 36.23 202.522 36.23C203.937 36.23 204.545 35.5806 204.545 34.6009C204.545 33.7143 203.884 33.0226 202.646 33.0226Z" fill="#BFBFBF"/>
<path d="M213.759 33.0734V39.8947H212.934V33.0734H210.406V32.3308H216.278V33.0734H213.759Z" fill="#BFBFBF"/>
<path d="M227.328 40.0387L222.416 34.1575V39.8947H221.588V32.2291L221.755 32.1868L226.605 37.9748V32.3308H227.433V40.0076L227.328 40.0387Z" fill="#BFBFBF"/>
<path d="M233.311 39.8947V32.3308H237.74V33.0734H234.135V35.685H237.378V36.4276H234.135V39.1522H237.74V39.8947H233.311Z" fill="#BFBFBF"/>
<path d="M247.674 39.8948L245.663 36.9132C245.499 36.9245 245.332 36.933 245.157 36.933C244.908 36.933 244.547 36.9217 244.301 36.9132V39.8948H243.476V32.4043C244.033 32.3308 244.592 32.28 245.219 32.28C247.171 32.28 248.129 33.2513 248.129 34.5501C248.129 35.6032 247.541 36.3966 246.476 36.7382L248.674 39.8948H247.671H247.674ZM245.341 33.0226C244.99 33.0226 244.567 33.0423 244.298 33.1045V36.1792C244.547 36.2102 244.928 36.23 245.216 36.23C246.632 36.23 247.239 35.5806 247.239 34.6009C247.239 33.7143 246.578 33.0226 245.341 33.0226Z" fill="#BFBFBF"/>
<path d="M255.444 40.019C254.588 40.019 253.916 39.7508 253.255 39.3188L253.659 38.596C254.238 39.0082 254.896 39.2652 255.487 39.2652C256.456 39.2652 256.91 38.6271 256.91 37.9438C256.91 37.2606 256.653 36.8907 255.413 36.3458C254.103 35.7698 253.617 35.1797 253.617 34.2734C253.617 33.1807 254.546 32.2095 255.927 32.2095C256.569 32.2095 257.176 32.4269 257.611 32.7233L257.238 33.4235C256.865 33.1553 256.371 32.9605 255.877 32.9605C254.927 32.9605 254.442 33.5393 254.442 34.2282C254.442 34.7534 254.803 35.1769 255.732 35.6004C257.311 36.3119 257.755 36.8399 257.755 37.8506C257.755 39.0788 256.755 40.0162 255.444 40.0162" fill="#BFBFBF"/>
<path d="M42.4648 30.9982C43.3715 29.4961 43.5692 26.0431 41.7615 25.5744C41.5722 25.5264 41.3886 25.501 41.2078 25.501C39.6599 25.501 38.4115 27.2543 37.2392 29.8914C35.9343 32.8362 35.197 35.6907 34.9626 36.964C34.9626 36.964 36.6489 36.501 38.547 35.0893C40.5666 33.5844 41.4423 32.6866 42.462 30.9982H42.4648Z" fill="#446472"/>
<path d="M32.8187 33.175C32.8187 33.175 30.7765 37.3903 30.3076 38.1272C29.898 38.7738 29.2286 39.7281 28.3473 39.7281C28.223 39.7281 28.0959 39.7112 27.9632 39.6688C26.8926 39.3356 26.2882 38.195 26.2204 36.6562C26.1526 35.1175 26.2204 29.6288 26.2204 29.6288C26.2204 29.6288 24.3448 34.5838 23.8759 35.4535C23.4325 36.2779 22.8704 37.3395 22.0738 37.3395C22.0286 37.3395 21.9806 37.3367 21.9354 37.3282C21.0654 37.1955 20.9976 36.2581 20.9976 34.5838C20.9976 32.9096 21.1982 28.8919 21.1982 28.8919C21.1982 28.8919 18.8537 35.6539 18.5204 37.3931C18.1843 39.1352 17.9696 40.8518 17.0997 41.0523C16.9838 41.0777 16.885 41.0918 16.7946 41.0918C16.2184 41.0918 16.1901 40.5412 16.1308 39.7281C16.063 38.7907 16.1365 32.8418 16.2014 32.1049C16.2692 31.368 16.4161 28.0618 16.4161 28.0618C16.4161 28.0618 14.1649 32.9096 12.2893 34.7843C10.4138 36.659 8.75571 37.7799 6.86321 37.9296C6.59205 37.9522 6.33218 37.9606 6.07797 37.9606C4.42556 37.9606 3.18272 37.5315 2.53024 37.0967C1.62636 36.4953 0.908902 35.4422 0.519103 34.6431C0.408943 34.4173 0.318555 34.1857 0.236641 33.9514V43.9999H32.4317C32.4684 42.8508 32.4967 41.3516 32.5588 39.5587C32.6549 36.9301 32.8102 33.175 32.8102 33.175H32.8187Z" fill="#446472"/>
<path d="M44.2641 31.0293C44.2189 31.1507 44.1709 31.2721 44.1172 31.3879C43.6172 32.4805 42.7727 33.5026 41.9507 34.4484C40.7983 35.7726 38.7476 37.0799 37.6544 37.6276C36.9342 37.989 34.7903 38.7428 34.7903 38.7428C34.7903 38.7428 34.7564 39.9033 34.6886 41.0383C34.649 41.6905 34.6321 42.9187 34.5897 44H44.2669V31.0293H44.2641Z" fill="#446472"/>
<path d="M3.63749 24.7641C4.61481 24.2587 5.6684 24.0865 6.62595 24.0865C7.67671 24.0865 8.61166 24.2954 9.19918 24.5015C10.1511 24.8347 10.6821 25.5264 10.49 26.0064C10.3855 26.269 10.1483 26.3735 9.91098 26.3735C9.71609 26.3735 9.52119 26.3057 9.39125 26.1956C9.23307 26.0657 8.0665 25.5038 6.63724 25.5038C5.4622 25.5038 4.10638 25.885 2.99348 27.1979C0.146255 30.5634 1.92859 33.8442 2.20541 34.375C2.4794 34.9058 3.30701 36.165 5.05828 36.3881C5.27577 36.4163 5.49327 36.4276 5.71077 36.4276C6.62877 36.4276 7.45074 36.2272 7.45074 36.2272C8.65685 35.9589 9.81495 35.2531 11.1538 33.847C12.4927 32.441 14.9049 28.5588 15.5744 27.085C16.1026 25.9189 16.7607 25.0069 17.4414 25.0069C17.6222 25.0069 17.803 25.0719 17.9866 25.2102C18.8566 25.8794 18.5882 28.155 18.5233 29.0246C18.4555 29.8943 18.2549 33.0424 18.2549 33.0424C18.2549 33.0424 20.0627 27.6186 20.4666 26.6812C20.8395 25.8088 21.5032 24.99 21.9721 24.99C22.006 24.99 22.0399 24.9956 22.0738 25.0041C22.5427 25.1396 22.7433 25.5434 22.7433 26.6812C22.7433 27.819 22.3422 35.1825 22.3422 35.1825C22.3422 35.1825 23.9494 31.7521 24.3505 30.6876C24.7516 29.626 25.9577 26.7461 26.1582 26.3452C26.2938 26.0742 26.6723 25.6196 27.048 25.6196C27.2288 25.6196 27.4124 25.7269 27.5621 26.0092C28.031 26.8789 27.5621 32.0993 27.5621 33.4405C27.5621 34.7816 27.5112 37.3226 27.7711 37.7264C27.8841 37.9014 28.0366 38.037 28.2315 38.037C28.4885 38.037 28.819 37.8054 29.2371 37.1222C29.9743 35.9166 31.8498 32.3026 32.2509 31.2325C32.652 30.1625 32.9204 29.4256 33.1887 28.0195C33.4571 26.6134 33.7254 24.9392 33.8582 24.606C33.9768 24.3095 34.4598 23.7025 34.94 23.7025C35.005 23.7025 35.0671 23.7138 35.1292 23.7364C35.6659 23.9369 35.8665 24.3378 35.7987 25.2102C35.7309 26.0798 35.5303 30.8711 35.5303 30.8711C35.5303 30.8711 36.6687 26.2803 39.0809 24.7415C39.8803 24.2305 40.6034 24.0357 41.2361 24.0357C42.51 24.0357 43.4139 24.8262 43.8376 25.4107C44.0042 25.645 44.1454 25.9217 44.2641 26.2238V0H0.245117V28.923C0.536054 27.9997 1.30718 25.9669 3.63749 24.7641Z" fill="#446472"/>
</g>
<defs>
<clipPath id="clip0_729_1566">
<rect width="258" height="44" fill="white"/>
</clipPath>
</defs>
</svg>
