<?xml version="1.0" encoding="UTF-8"?>
<svg xmlns="http://www.w3.org/2000/svg" viewBox="0 0 1947.22 1133.61">
  <defs>
    <style>
      .cls-1 {
        fill: none;
      }

      .cls-1, .cls-2, .cls-3 {
        stroke: #000;
        stroke-miterlimit: 10;
      }

      .cls-3 {
        fill: #8b8b94;
      }
    </style>
  </defs>
  <g id="Units">
    <polygon id="A131" class="cls-1" points="161.62 917.57 160.38 606.67 205.63 606.67 205.63 601.55 249.69 601.55 250.5 917.57 161.62 917.57"/>
    <polygon id="A119" class="cls-1" points="690.91 919.19 690.49 610.21 734.71 610.68 734.71 604.95 777.32 604.48 777.32 919.19 690.91 919.19"/>
    <polygon id="A115" class="cls-1" points="1076.53 919.19 1076.1 611.39 1118.83 611.39 1118.83 603.27 1164.55 603.27 1164.55 919.19 1076.53 919.19"/>
    <polygon id="A103" class="cls-1" points="1607.45 917.57 1607.02 609.68 1650.16 609.68 1650.16 604.22 1696.33 604.22 1696.33 917.57 1607.45 917.57"/>
    <polygon id="A101" class="cls-1" points="1787.7 917.57 1788.12 609.68 1745.78 609.68 1745.78 604.22 1700.47 604.22 1700.47 917.57 1787.7 917.57"/>
    <polygon id="A113" class="cls-1" points="1258.5 919.19 1258.94 611.39 1215.61 611.39 1215.61 603.27 1169.25 603.27 1169.25 919.19 1258.5 919.19"/>
    <polygon id="A117" class="cls-1" points="873.44 919.19 873.86 610.21 829.63 610.21 829.63 604.48 786.49 604.48 786.49 919.19 873.44 919.19"/>
    <polygon id="A129" class="cls-1" points="342.37 917.57 341.98 606.67 299.63 606.67 299.63 601.55 254.32 601.55 255.14 917.57 342.37 917.57"/>
    <polygon id="A121" class="cls-1" points="687.39 868.49 687.79 609.44 647.7 609.44 647.7 602.6 604.81 602.6 604.81 868.49 687.39 868.49"/>
    <polygon id="A105" class="cls-1" points="1602.19 868.49 1602.58 610.29 1563.66 610.13 1563.66 603.27 1520.88 604.24 1520.88 868.49 1602.19 868.49"/>
    <polygon id="A107" class="cls-1" points="1516.05 900.31 1516.45 640.79 1476.98 640.79 1476.98 633.95 1434.75 633.95 1434.75 900.31 1516.05 900.31"/>
    <polygon id="A109" class="cls-1" points="1348.33 900.31 1347.93 640.79 1388.05 640.79 1388.05 633.95 1430.98 633.95 1430.98 900.31 1348.33 900.31"/>
    <polygon id="A111" class="cls-1" points="1263.11 868.49 1262.71 608.42 1302.57 608.42 1302.57 601.55 1345.23 601.55 1345.23 868.49 1263.11 868.49"/>
    <polygon id="A123" class="cls-1" points="600.44 899.77 600.84 640.2 563.75 640.2 563.75 633.35 518.44 633.35 518.44 899.77 600.44 899.77"/>
    <polygon id="A125" class="cls-1" points="432.55 899.77 432.15 640.2 469.36 640.2 469.36 633.35 515.75 633.35 515.75 899.77 432.55 899.77"/>
    <polygon id="A127" class="cls-1" points="347.81 867.49 347.42 608.39 385.72 608.39 385.72 601.55 426.7 601.55 426.7 867.49 347.81 867.49"/>
    <polygon id="A132" class="cls-1" points="161.62 215.52 161.19 526.05 204.34 526.05 204.34 534.24 250.5 534.24 250.5 215.52 161.62 215.52"/>
    <polygon id="A120" class="cls-1" points="692.52 220.22 692.1 526.17 733.69 526.17 733.69 534.24 778.19 534.24 778.19 220.22 692.52 220.22"/>
    <polygon id="A116" class="cls-1" points="1076.53 224.22 1076.1 529.41 1118.83 529.41 1118.83 537.46 1164.55 537.46 1164.55 224.22 1076.53 224.22"/>
    <polygon id="A104" class="cls-1" points="1607.45 224.22 1607.02 529.41 1650.16 529.41 1650.16 537.46 1696.33 537.46 1696.33 224.22 1607.45 224.22"/>
    <polygon id="A102" class="cls-1" points="1787.7 224.22 1788.12 529.41 1745.78 529.41 1745.78 537.46 1700.47 537.46 1700.47 224.22 1787.7 224.22"/>
    <polygon id="A114" class="cls-1" points="1256.48 224.22 1256.9 529.41 1214.56 529.41 1214.56 537.46 1169.25 537.46 1169.25 224.22 1256.48 224.22"/>
    <polygon id="A118" class="cls-1" points="870.62 220.22 871.04 526.17 829.41 526.17 829.41 534.24 784.87 534.24 784.87 220.22 870.62 220.22"/>
    <polygon id="A130" class="cls-1" points="342.37 215.52 342.79 526.05 300.45 526.05 300.45 534.24 255.14 534.24 255.14 215.52 342.37 215.52"/>
    <polygon id="A122" class="cls-1" points="687.28 268.22 687.66 527.4 648.9 527.4 648.9 534.24 607.43 534.24 607.43 268.22 687.28 268.22"/>
    <polygon id="A106" class="cls-1" points="1602.19 273.93 1602.59 535.29 1563.11 535.29 1563.11 542.19 1520.88 542.19 1520.88 273.93 1602.19 273.93"/>
    <polygon id="A108" class="cls-1" points="1516.05 240.77 1516.45 502.13 1476.98 502.13 1476.98 509.02 1434.75 509.02 1434.75 240.77 1516.05 240.77"/>
    <polygon id="A110" class="cls-1" points="1349.64 240.77 1349.25 502.13 1387.55 502.13 1387.55 509.02 1428.53 509.02 1428.53 240.77 1349.64 240.77"/>
    <polygon id="A112" class="cls-1" points="1263.82 269.89 1263.44 530.58 1301.74 530.58 1301.74 537.46 1342.72 537.46 1342.72 269.89 1263.82 269.89"/>
    <polygon id="A124" class="cls-1" points="600.44 238.02 600.84 496.02 563.09 496.02 563.09 502.83 518.13 502.83 518.13 238.02 600.44 238.02"/>
    <polygon id="A126" class="cls-1" points="433.08 238.02 432.69 496.02 471.46 496.02 471.46 502.83 512.94 502.83 512.94 238.02 433.08 238.02"/>
    <polygon id="A128" class="cls-1" points="346.78 268.22 346.4 527.4 385.19 527.4 385.19 534.24 426.7 534.24 426.7 268.22 346.78 268.22"/>
  </g>
  <g id="Outline">
    <rect class="cls-2" x="907.12" y="980.13" width="131.24" height="14.02"/>
    <rect class="cls-2" x="873.86" y="964.31" width="42.61" height="15.82"/>
    <rect class="cls-2" x="1029" y="964.31" width="43.87" height="15.82"/>
    <rect class="cls-2" x="1061.72" y="925.12" width="11.15" height="39.19"/>
    <rect class="cls-2" x="873.86" y="925.12" width="10.25" height="39.19"/>
    <rect class="cls-2" x="1072.87" y="925.12" width="199.19" height="14.02"/>
    <rect class="cls-2" x="1262.71" y="873.35" width="9.35" height="51.78"/>
    <rect class="cls-2" x="1336.06" y="906.78" width="194.16" height="14.38"/>
    <rect class="cls-2" x="1336.06" y="873.35" width="9.17" height="33.44"/>
    <rect class="cls-2" x="1272.06" y="873.35" width="64" height="14.74"/>
    <rect class="cls-2" x="1520.88" y="876.22" width="9.34" height="30.56"/>
    <rect class="cls-2" x="1530.22" y="876.22" width="72.36" height="11.87"/>
    <rect class="cls-2" x="1593.14" y="888.09" width="9.44" height="52.49"/>
    <rect class="cls-2" x="1602.58" y="925.12" width="197.66" height="15.46"/>
    <rect class="cls-2" x="1792.33" y="825.88" width="7.91" height="99.24"/>
    <rect class="cls-2" x="1800.24" y="825.88" width="125.12" height="13.66"/>
    <rect class="cls-2" x="1916.37" y="624.18" width="8.99" height="201.71"/>
    <rect class="cls-2" x="1847.34" y="624.18" width="69.03" height="14.02"/>
    <rect class="cls-2" x="1847.34" y="516.31" width="8.63" height="107.87"/>
    <rect class="cls-2" x="1847.34" y="502.65" width="13.66" height="13.66"/>
    <rect class="cls-2" x="1851.66" y="252.76" width="9.35" height="249.89"/>
    <rect class="cls-2" x="1793.05" y="252.76" width="58.61" height="12.94"/>
    <rect class="cls-2" x="1793.05" y="201.35" width="8.27" height="51.42"/>
    <rect class="cls-2" x="1594.58" y="201.35" width="198.47" height="13.66"/>
    <rect class="cls-2" x="1594.58" y="215.01" width="8.01" height="49.98"/>
    <rect class="cls-2" x="1520.88" y="253.48" width="73.7" height="11.51"/>
    <rect class="cls-2" x="1520.88" y="218.24" width="8.98" height="35.24"/>
    <rect class="cls-2" x="1334.26" y="218.24" width="186.62" height="17.62"/>
    <rect class="cls-2" x="1334.26" y="235.86" width="11.87" height="29.12"/>
    <rect class="cls-2" x="1263.44" y="250.42" width="70.82" height="14.56"/>
    <rect class="cls-2" x="1263.44" y="198.11" width="8.98" height="52.31"/>
    <rect class="cls-2" x="1063.16" y="198.11" width="200.28" height="14.02"/>
    <rect class="cls-2" x="1029.36" y="184.81" width="42.43" height="13.3"/>
    <rect class="cls-2" x="908.19" y="169.35" width="131.6" height="15.46"/>
    <rect class="cls-2" x="874.76" y="184.81" width="43.15" height="13.3"/>
    <rect class="cls-2" x="676.64" y="198.11" width="209.62" height="15.82"/>
    <rect class="cls-2" x="676.64" y="213.93" width="11.02" height="49.62"/>
    <rect class="cls-2" x="604.91" y="249.71" width="71.73" height="14.56"/>
    <rect class="cls-2" x="604.91" y="217.53" width="9.89" height="32.18"/>
    <rect class="cls-2" x="419.93" y="217.53" width="184.99" height="16.09"/>
    <rect class="cls-2" x="419.93" y="233.62" width="6.78" height="29.93"/>
    <rect class="cls-2" x="346.4" y="249.71" width="73.53" height="13.84"/>
    <rect class="cls-2" x="346.4" y="198.11" width="10.25" height="51.6"/>
    <rect class="cls-2" x="146.67" y="198.11" width="199.73" height="14.38"/>
    <rect class="cls-2" x="146.67" y="212.49" width="11.15" height="51.06"/>
    <rect class="cls-2" x="86.62" y="249.71" width="60.04" height="13.84"/>
    <rect class="cls-2" x="86.62" y="499.77" width="15.82" height="14.56"/>
    <rect class="cls-2" x="86.62" y="263.55" width="11.51" height="236.22"/>
    <rect class="cls-2" x="92.37" y="514.33" width="10.07" height="122.43"/>
    <rect class="cls-2" x="22.98" y="620.22" width="69.39" height="16.54"/>
    <rect class="cls-2" x="22.98" y="636.76" width="9.71" height="202.43"/>
    <rect class="cls-2" x="32.69" y="823.01" width="124.58" height="16.18"/>
    <rect class="cls-2" x="147.39" y="839.19" width="9.89" height="98.16"/>
    <rect class="cls-2" x="678.44" y="925.12" width="195.42" height="14.74"/>
    <rect class="cls-2" x="678.44" y="872.99" width="7.19" height="52.13"/>
    <rect class="cls-2" x="606.89" y="872.99" width="71.55" height="13.66"/>
    <rect class="cls-2" x="604.81" y="886.65" width="8.91" height="34.16"/>
    <rect class="cls-2" x="418.85" y="907.14" width="185.97" height="13.66"/>
    <rect class="cls-2" x="418.85" y="876.94" width="9.35" height="30.2"/>
    <rect class="cls-2" x="347.42" y="876.94" width="71.42" height="11.87"/>
    <rect class="cls-2" x="347.42" y="888.81" width="8.86" height="48.9"/>
    <rect class="cls-2" x="157.27" y="923.32" width="190.15" height="14.02"/>
  </g>
  <g id="Stair">
    <rect class="cls-2" x="102.36" y="316.4" width="55.45" height="49.98"/>
    <rect class="cls-2" x="132.03" y="380.76" width="25.78" height="6.47"/>
    <rect class="cls-2" x="102.36" y="380.76" width="26.49" height="6.47"/>
    <rect class="cls-2" x="132.03" y="369.44" width="25.78" height="6.47"/>
    <rect class="cls-2" x="102.36" y="369.44" width="26.49" height="6.47"/>
    <rect class="cls-2" x="132.03" y="392.09" width="25.78" height="6.47"/>
    <rect class="cls-2" x="102.36" y="392.09" width="26.49" height="6.47"/>
    <rect class="cls-2" x="132.03" y="402.51" width="25.78" height="6.47"/>
    <rect class="cls-2" x="102.36" y="402.51" width="26.49" height="6.47"/>
    <rect class="cls-2" x="131.75" y="412.94" width="25.78" height="6.47"/>
    <rect class="cls-2" x="102.08" y="412.94" width="26.49" height="6.47"/>
    <rect class="cls-2" x="131.75" y="423.37" width="25.78" height="6.47"/>
    <rect class="cls-2" x="102.08" y="423.37" width="26.49" height="6.47"/>
    <rect class="cls-2" x="131.75" y="433.79" width="25.78" height="6.47"/>
    <rect class="cls-2" x="102.08" y="433.79" width="26.49" height="6.47"/>
    <rect class="cls-2" x="102.08" y="445.03" width="55.45" height="49.98"/>
    <rect class="cls-2" x="1017.59" y="269.89" width="54.2" height="48.73"/>
    <rect class="cls-2" x="1046.59" y="332.64" width="25.2" height="6.31"/>
    <rect class="cls-2" x="1017.59" y="332.64" width="25.89" height="6.31"/>
    <rect class="cls-2" x="1046.59" y="321.6" width="25.2" height="6.31"/>
    <rect class="cls-2" x="1017.59" y="321.6" width="25.89" height="6.31"/>
    <rect class="cls-2" x="1046.59" y="343.69" width="25.2" height="6.31"/>
    <rect class="cls-2" x="1017.59" y="343.69" width="25.89" height="6.31"/>
    <rect class="cls-2" x="1046.59" y="353.85" width="25.2" height="6.31"/>
    <rect class="cls-2" x="1017.59" y="353.85" width="25.89" height="6.31"/>
    <rect class="cls-2" x="1046.31" y="364.02" width="25.2" height="6.31"/>
    <rect class="cls-2" x="1017.32" y="364.02" width="25.89" height="6.31"/>
    <rect class="cls-2" x="1046.31" y="374.19" width="25.2" height="6.31"/>
    <rect class="cls-2" x="1017.32" y="374.19" width="25.89" height="6.31"/>
    <rect class="cls-2" x="1046.31" y="384.36" width="25.2" height="6.31"/>
    <rect class="cls-2" x="1017.32" y="384.36" width="25.89" height="6.31"/>
    <rect class="cls-2" x="1017.32" y="395.31" width="54.2" height="48.73"/>
    <rect class="cls-2" x="1792.31" y="320.22" width="55.45" height="49.98"/>
    <rect class="cls-2" x="1821.97" y="384.58" width="25.78" height="6.47"/>
    <rect class="cls-2" x="1792.31" y="384.58" width="26.49" height="6.47"/>
    <rect class="cls-2" x="1821.97" y="373.26" width="25.78" height="6.47"/>
    <rect class="cls-2" x="1792.31" y="373.26" width="26.49" height="6.47"/>
    <rect class="cls-2" x="1821.97" y="395.91" width="25.78" height="6.47"/>
    <rect class="cls-2" x="1792.31" y="395.91" width="26.49" height="6.47"/>
    <rect class="cls-2" x="1821.97" y="406.33" width="25.78" height="6.47"/>
    <rect class="cls-2" x="1792.31" y="406.33" width="26.49" height="6.47"/>
    <rect class="cls-2" x="1821.69" y="416.76" width="25.78" height="6.47"/>
    <rect class="cls-2" x="1792.02" y="416.76" width="26.49" height="6.47"/>
    <rect class="cls-2" x="1821.69" y="427.19" width="25.78" height="6.47"/>
    <rect class="cls-2" x="1792.02" y="427.19" width="26.49" height="6.47"/>
    <rect class="cls-2" x="1821.69" y="437.62" width="25.78" height="6.47"/>
    <rect class="cls-2" x="1792.02" y="437.62" width="26.49" height="6.47"/>
    <rect class="cls-2" x="1792.02" y="448.85" width="55.45" height="49.98"/>
  </g>
  <g id="Extra_Rooms" data-name="Extra Rooms">
    <rect class="cls-3" x="1792.2" y="643.05" width="120.09" height="177.98"/>
    <rect class="cls-3" x="37.36" y="640.9" width="120.09" height="177.98"/>
  </g>
</svg>