<?xml version="1.0" encoding="UTF-8"?>
<svg xmlns="http://www.w3.org/2000/svg" viewBox="0 0 1947.22 1133.61">
  <defs>
    <style>
      .cls-1 {
        fill: none;
      }

      .cls-1, .cls-2, .cls-3 {
        stroke: #000;
        stroke-miterlimit: 10;
      }

      .cls-3 {
        fill: #8b8b94;
      }
    </style>
  </defs>
  <g id="Units">
    <polygon id="A432" class="cls-1" points="161.62 188.73 161.19 499.27 204.34 499.27 204.34 507.46 250.5 507.46 250.5 188.73 161.62 188.73"/>
    <polygon id="A431" class="cls-1" points="161.62 890.79 160.38 579.88 205.63 579.88 205.63 574.77 249.69 574.77 250.5 890.79 161.62 890.79"/>
    <polygon id="A430" class="cls-1" points="342.37 188.73 342.79 499.27 300.45 499.27 300.45 507.46 255.14 507.46 255.14 188.73 342.37 188.73"/>
    <polygon id="A429" class="cls-1" points="342.37 890.79 341.98 579.88 299.63 579.88 299.63 574.77 254.32 574.77 255.14 890.79 342.37 890.79"/>
    <polygon id="A428" class="cls-1" points="346.78 241.44 346.4 500.62 385.19 500.62 385.19 507.46 426.7 507.46 426.7 241.44 346.78 241.44"/>
    <polygon id="A427" class="cls-1" points="347.81 840.71 347.42 581.61 385.72 581.61 385.72 574.77 426.7 574.77 426.7 840.71 347.81 840.71"/>
    <polygon id="A426" class="cls-1" points="433.08 211.24 432.69 469.24 471.46 469.24 471.46 476.05 512.94 476.05 512.94 211.24 433.08 211.24"/>
    <polygon id="A425" class="cls-1" points="432.55 872.99 432.15 613.41 469.36 613.41 469.36 606.56 515.75 606.56 515.75 872.99 432.55 872.99"/>
    <polygon id="A424" class="cls-1" points="600.44 211.24 600.84 469.24 563.09 469.24 563.09 476.05 518.13 476.05 518.13 211.24 600.44 211.24"/>
    <polygon id="A423" class="cls-1" points="600.44 872.99 600.84 613.41 563.75 613.41 563.75 606.56 518.44 606.56 518.44 872.99 600.44 872.99"/>
    <polygon id="A422" class="cls-1" points="687.28 241.44 687.66 500.62 648.9 500.62 648.9 507.46 607.43 507.46 607.43 241.44 687.28 241.44"/>
    <polygon id="A421" class="cls-1" points="687.39 841.71 687.79 582.66 647.7 582.66 647.7 575.82 604.81 575.82 604.81 841.71 687.39 841.71"/>
    <polygon id="A420" class="cls-1" points="692.52 193.44 692.1 499.39 733.69 499.39 733.69 507.46 778.19 507.46 778.19 193.44 692.52 193.44"/>
    <polygon id="A419" class="cls-1" points="690.91 892.41 690.49 583.43 734.71 583.9 734.71 578.17 777.32 577.7 777.32 892.41 690.91 892.41"/>
    <polygon id="A418" class="cls-1" points="870.62 193.44 871.04 499.39 829.41 499.39 829.41 507.46 784.87 507.46 784.87 193.44 870.62 193.44"/>
    <polygon id="A417" class="cls-1" points="873.44 892.41 873.86 583.43 829.63 583.43 829.63 577.7 786.49 577.7 786.49 892.41 873.44 892.41"/>
    <polygon id="A416" class="cls-1" points="1076.53 197.44 1076.1 502.63 1118.83 502.63 1118.83 510.68 1164.55 510.68 1164.55 197.44 1076.53 197.44"/>
    <polygon id="A415" class="cls-1" points="1076.53 892.41 1076.1 584.61 1118.83 584.61 1118.83 576.49 1164.55 576.49 1164.55 892.41 1076.53 892.41"/>
    <polygon id="A414" class="cls-1" points="1256.48 197.44 1256.9 502.63 1214.56 502.63 1214.56 510.68 1169.25 510.68 1169.25 197.44 1256.48 197.44"/>
    <polygon id="A413" class="cls-1" points="1258.5 892.41 1258.94 584.61 1215.61 584.61 1215.61 576.49 1169.25 576.49 1169.25 892.41 1258.5 892.41"/>
    <polygon id="A412" class="cls-1" points="1263.82 243.11 1263.44 503.8 1301.74 503.8 1301.74 510.68 1342.72 510.68 1342.72 243.11 1263.82 243.11"/>
    <polygon id="A411" class="cls-1" points="1263.11 841.71 1262.71 581.63 1302.57 581.63 1302.57 574.77 1345.23 574.77 1345.23 841.71 1263.11 841.71"/>
    <polygon id="A410" class="cls-1" points="1349.64 213.98 1349.25 475.34 1387.55 475.34 1387.55 482.24 1428.53 482.24 1428.53 213.98 1349.64 213.98"/>
    <polygon id="A409" class="cls-1" points="1348.33 873.53 1347.93 614.01 1388.05 614.01 1388.05 607.16 1430.98 607.16 1430.98 873.53 1348.33 873.53"/>
    <polygon id="A408" class="cls-1" points="1516.05 213.98 1516.45 475.34 1476.98 475.34 1476.98 482.24 1434.75 482.24 1434.75 213.98 1516.05 213.98"/>
    <polygon id="A407" class="cls-1" points="1516.05 873.53 1516.45 614.01 1476.98 614.01 1476.98 607.16 1434.75 607.16 1434.75 873.53 1516.05 873.53"/>
    <polygon id="A406" class="cls-1" points="1602.19 247.15 1602.59 508.51 1563.11 508.51 1563.11 515.41 1520.88 515.41 1520.88 247.15 1602.19 247.15"/>
    <polygon id="A405" class="cls-1" points="1602.19 841.71 1602.58 583.51 1563.66 583.35 1563.66 576.49 1520.88 577.46 1520.88 841.71 1602.19 841.71"/>
    <polygon id="A404" class="cls-1" points="1607.45 197.44 1607.02 502.63 1650.16 502.63 1650.16 510.68 1696.33 510.68 1696.33 197.44 1607.45 197.44"/>
    <polygon id="A403" class="cls-1" points="1607.45 890.79 1607.02 582.9 1650.16 582.9 1650.16 577.44 1696.33 577.44 1696.33 890.79 1607.45 890.79"/>
    <polygon id="A402" class="cls-1" points="1787.7 197.44 1788.12 502.63 1745.78 502.63 1745.78 510.68 1700.47 510.68 1700.47 197.44 1787.7 197.44"/>
    <polygon id="A401" class="cls-1" points="1787.7 890.79 1788.12 582.9 1745.78 582.9 1745.78 577.44 1700.47 577.44 1700.47 890.79 1787.7 890.79"/>
  </g>
  <g id="Outline">
    <rect class="cls-2" x="907.12" y="953.35" width="131.24" height="14.02"/>
    <rect class="cls-2" x="873.86" y="937.53" width="42.61" height="15.82"/>
    <rect class="cls-2" x="1029" y="937.53" width="43.87" height="15.82"/>
    <rect class="cls-2" x="1061.72" y="898.34" width="11.15" height="39.19"/>
    <rect class="cls-2" x="873.86" y="898.34" width="10.25" height="39.19"/>
    <rect class="cls-2" x="1072.87" y="898.34" width="199.19" height="14.02"/>
    <rect class="cls-2" x="1262.71" y="846.56" width="9.35" height="51.78"/>
    <rect class="cls-2" x="1336.06" y="880" width="194.16" height="14.38"/>
    <rect class="cls-2" x="1336.06" y="846.56" width="9.17" height="33.44"/>
    <rect class="cls-2" x="1272.06" y="846.56" width="64" height="14.74"/>
    <rect class="cls-2" x="1520.88" y="849.44" width="9.34" height="30.56"/>
    <rect class="cls-2" x="1530.22" y="849.44" width="72.36" height="11.87"/>
    <rect class="cls-2" x="1593.14" y="861.3" width="9.44" height="52.49"/>
    <rect class="cls-2" x="1602.58" y="898.34" width="197.66" height="15.46"/>
    <rect class="cls-2" x="1792.33" y="799.1" width="7.91" height="99.24"/>
    <rect class="cls-2" x="1800.24" y="799.1" width="125.12" height="13.66"/>
    <rect class="cls-2" x="1916.37" y="597.39" width="8.99" height="201.71"/>
    <rect class="cls-2" x="1847.34" y="597.39" width="69.03" height="14.02"/>
    <rect class="cls-2" x="1847.34" y="489.53" width="8.63" height="107.87"/>
    <rect class="cls-2" x="1847.34" y="475.87" width="13.66" height="13.66"/>
    <rect class="cls-2" x="1851.66" y="225.98" width="9.35" height="249.89"/>
    <rect class="cls-2" x="1793.05" y="225.98" width="58.61" height="12.94"/>
    <rect class="cls-2" x="1793.05" y="174.56" width="8.27" height="51.42"/>
    <rect class="cls-2" x="1594.58" y="174.56" width="198.47" height="13.66"/>
    <rect class="cls-2" x="1594.58" y="188.23" width="8.01" height="49.98"/>
    <rect class="cls-2" x="1520.88" y="226.7" width="73.7" height="11.51"/>
    <rect class="cls-2" x="1520.88" y="191.46" width="8.98" height="35.24"/>
    <rect class="cls-2" x="1334.26" y="191.46" width="186.62" height="17.62"/>
    <rect class="cls-2" x="1334.26" y="209.08" width="11.87" height="29.12"/>
    <rect class="cls-2" x="1263.44" y="223.64" width="70.82" height="14.56"/>
    <rect class="cls-2" x="1263.44" y="171.33" width="8.98" height="52.31"/>
    <rect class="cls-2" x="1063.16" y="171.33" width="200.28" height="14.02"/>
    <rect class="cls-2" x="1029.36" y="158.02" width="42.43" height="13.3"/>
    <rect class="cls-2" x="908.19" y="142.56" width="131.6" height="15.46"/>
    <rect class="cls-2" x="874.76" y="158.02" width="43.15" height="13.3"/>
    <rect class="cls-2" x="676.64" y="171.33" width="209.62" height="15.82"/>
    <rect class="cls-2" x="676.64" y="187.15" width="11.02" height="49.62"/>
    <rect class="cls-2" x="604.91" y="222.92" width="71.73" height="14.56"/>
    <rect class="cls-2" x="604.91" y="190.74" width="9.89" height="32.18"/>
    <rect class="cls-2" x="419.93" y="190.74" width="184.99" height="16.09"/>
    <rect class="cls-2" x="419.93" y="206.83" width="6.78" height="29.93"/>
    <rect class="cls-2" x="346.4" y="222.92" width="73.53" height="13.84"/>
    <rect class="cls-2" x="346.4" y="171.33" width="10.25" height="51.6"/>
    <rect class="cls-2" x="146.67" y="171.33" width="199.73" height="14.38"/>
    <rect class="cls-2" x="146.67" y="185.71" width="11.15" height="51.06"/>
    <rect class="cls-2" x="86.62" y="222.92" width="60.04" height="13.84"/>
    <rect class="cls-2" x="86.62" y="472.99" width="15.82" height="14.56"/>
    <rect class="cls-2" x="86.62" y="236.77" width="11.51" height="236.22"/>
    <rect class="cls-2" x="92.37" y="487.55" width="10.07" height="122.43"/>
    <rect class="cls-2" x="22.98" y="593.44" width="69.39" height="16.54"/>
    <rect class="cls-2" x="22.98" y="609.98" width="9.71" height="202.43"/>
    <rect class="cls-2" x="32.69" y="796.23" width="124.58" height="16.18"/>
    <rect class="cls-2" x="147.39" y="812.41" width="9.89" height="98.16"/>
    <rect class="cls-2" x="678.44" y="898.34" width="195.42" height="14.74"/>
    <rect class="cls-2" x="678.44" y="846.2" width="7.19" height="52.13"/>
    <rect class="cls-2" x="606.89" y="846.2" width="71.55" height="13.66"/>
    <rect class="cls-2" x="604.81" y="859.87" width="8.91" height="34.16"/>
    <rect class="cls-2" x="418.85" y="880.36" width="185.97" height="13.66"/>
    <rect class="cls-2" x="418.85" y="850.16" width="9.35" height="30.2"/>
    <rect class="cls-2" x="347.42" y="850.16" width="71.42" height="11.87"/>
    <rect class="cls-2" x="347.42" y="862.02" width="8.86" height="48.9"/>
    <rect class="cls-2" x="157.27" y="896.54" width="190.15" height="14.02"/>
  </g>
  <g id="Stair">
    <rect class="cls-2" x="102.36" y="289.62" width="55.45" height="49.98"/>
    <rect class="cls-2" x="132.03" y="353.98" width="25.78" height="6.47"/>
    <rect class="cls-2" x="102.36" y="353.98" width="26.49" height="6.47"/>
    <rect class="cls-2" x="132.03" y="342.65" width="25.78" height="6.47"/>
    <rect class="cls-2" x="102.36" y="342.65" width="26.49" height="6.47"/>
    <rect class="cls-2" x="132.03" y="365.3" width="25.78" height="6.47"/>
    <rect class="cls-2" x="102.36" y="365.3" width="26.49" height="6.47"/>
    <rect class="cls-2" x="132.03" y="375.73" width="25.78" height="6.47"/>
    <rect class="cls-2" x="102.36" y="375.73" width="26.49" height="6.47"/>
    <rect class="cls-2" x="131.75" y="386.16" width="25.78" height="6.47"/>
    <rect class="cls-2" x="102.08" y="386.16" width="26.49" height="6.47"/>
    <rect class="cls-2" x="131.75" y="396.59" width="25.78" height="6.47"/>
    <rect class="cls-2" x="102.08" y="396.59" width="26.49" height="6.47"/>
    <rect class="cls-2" x="131.75" y="407.01" width="25.78" height="6.47"/>
    <rect class="cls-2" x="102.08" y="407.01" width="26.49" height="6.47"/>
    <rect class="cls-2" x="102.08" y="418.25" width="55.45" height="49.98"/>
    <rect class="cls-2" x="1017.59" y="243.11" width="54.2" height="48.73"/>
    <rect class="cls-2" x="1046.59" y="305.86" width="25.2" height="6.31"/>
    <rect class="cls-2" x="1017.59" y="305.86" width="25.89" height="6.31"/>
    <rect class="cls-2" x="1046.59" y="294.82" width="25.2" height="6.31"/>
    <rect class="cls-2" x="1017.59" y="294.82" width="25.89" height="6.31"/>
    <rect class="cls-2" x="1046.59" y="316.9" width="25.2" height="6.31"/>
    <rect class="cls-2" x="1017.59" y="316.9" width="25.89" height="6.31"/>
    <rect class="cls-2" x="1046.59" y="327.07" width="25.2" height="6.31"/>
    <rect class="cls-2" x="1017.59" y="327.07" width="25.89" height="6.31"/>
    <rect class="cls-2" x="1046.31" y="337.24" width="25.2" height="6.31"/>
    <rect class="cls-2" x="1017.32" y="337.24" width="25.89" height="6.31"/>
    <rect class="cls-2" x="1046.31" y="347.41" width="25.2" height="6.31"/>
    <rect class="cls-2" x="1017.32" y="347.41" width="25.89" height="6.31"/>
    <rect class="cls-2" x="1046.31" y="357.57" width="25.2" height="6.31"/>
    <rect class="cls-2" x="1017.32" y="357.57" width="25.89" height="6.31"/>
    <rect class="cls-2" x="1017.32" y="368.53" width="54.2" height="48.73"/>
    <rect class="cls-2" x="1792.31" y="293.44" width="55.45" height="49.98"/>
    <rect class="cls-2" x="1821.97" y="357.8" width="25.78" height="6.47"/>
    <rect class="cls-2" x="1792.31" y="357.8" width="26.49" height="6.47"/>
    <rect class="cls-2" x="1821.97" y="346.47" width="25.78" height="6.47"/>
    <rect class="cls-2" x="1792.31" y="346.47" width="26.49" height="6.47"/>
    <rect class="cls-2" x="1821.97" y="369.12" width="25.78" height="6.47"/>
    <rect class="cls-2" x="1792.31" y="369.12" width="26.49" height="6.47"/>
    <rect class="cls-2" x="1821.97" y="379.55" width="25.78" height="6.47"/>
    <rect class="cls-2" x="1792.31" y="379.55" width="26.49" height="6.47"/>
    <rect class="cls-2" x="1821.69" y="389.98" width="25.78" height="6.47"/>
    <rect class="cls-2" x="1792.02" y="389.98" width="26.49" height="6.47"/>
    <rect class="cls-2" x="1821.69" y="400.41" width="25.78" height="6.47"/>
    <rect class="cls-2" x="1792.02" y="400.41" width="26.49" height="6.47"/>
    <rect class="cls-2" x="1821.69" y="410.83" width="25.78" height="6.47"/>
    <rect class="cls-2" x="1792.02" y="410.83" width="26.49" height="6.47"/>
    <rect class="cls-2" x="1792.02" y="422.07" width="55.45" height="49.98"/>
  </g>
  <g id="Extra_Rooms" data-name="Extra Rooms">
    <rect class="cls-3" x="1792.2" y="616.27" width="120.09" height="177.98"/>
    <rect class="cls-3" x="37.36" y="614.11" width="120.09" height="177.98"/>
  </g>
</svg>